<svg width="415" height="419" viewBox="0 0 415 419" fill="none" xmlns="http://www.w3.org/2000/svg">
<path d="M399.77 283.5C381.104 324.5 353.604 355.667 317.27 377C280.937 398.333 241.604 411.833 199.27 417.5C156.937 423.167 119.604 411.833 87.2704 383.5C54.9371 355.167 30.2704 321.167 13.2704 281.5C-3.72959 241.833 -4.39626 201.667 11.2704 161C26.9371 120.333 50.6037 83.3333 82.2704 50C113.937 16.6667 153.77 0 201.77 0C249.77 0 291.27 15.5 326.27 46.5C361.27 77.5 386.937 114.5 403.27 157.5C419.604 200.5 418.437 242.5 399.77 283.5Z" fill="#FB8E58"/>
</svg>
